<svg width="25" height="25" viewBox="0 0 25 25" fill="none" xmlns="http://www.w3.org/2000/svg">
<path fill-rule="evenodd" clip-rule="evenodd" d="M9.89932 22.2163C10.5994 22.8872 11.4982 23.2558 12.4308 23.2558H12.4322C13.3688 23.2558 14.2716 22.8872 14.9731 22.2151C15.3488 21.8581 15.9895 21.8291 16.4044 22.1512C16.8207 22.4733 16.8545 23.0256 16.4801 23.3826C15.388 24.4256 13.9513 25 12.4322 25H12.4295C10.9143 24.9988 9.48033 24.4244 8.39232 23.3814C8.01793 23.0244 8.05172 22.4721 8.468 22.1512C8.88429 21.8279 9.52493 21.857 9.89932 22.2163ZM12.4981 0C18.5058 0 22.5416 4.02558 22.5416 7.78488C22.5416 9.7186 23.1133 10.5384 23.7202 11.4081C24.3203 12.2663 25.0001 13.2407 25.0001 15.0826C24.5284 19.7884 18.818 20.1721 12.4981 20.1721C6.17818 20.1721 0.466449 19.7884 0.00013996 15.157C-0.0038967 13.2407 0.675942 12.2663 1.27604 11.4081L1.48789 11.1013C2.0095 10.3301 2.45461 9.49111 2.45461 7.78488C2.45461 4.02558 6.49039 0 12.4981 0ZM12.4981 1.74419C7.77438 1.74419 4.48196 4.92791 4.48196 7.78488C4.48196 10.2023 3.7021 11.3198 3.0128 12.3058C2.46001 13.0977 2.02346 13.7233 2.02346 15.0826C2.24917 17.2756 3.93187 18.4279 12.4981 18.4279C21.017 18.4279 22.7525 17.2244 22.9768 15.007C22.9728 13.7233 22.5362 13.0977 21.9834 12.3058C21.2941 11.3198 20.5143 10.2023 20.5143 7.78488C20.5143 4.92791 17.2218 1.74419 12.4981 1.74419Z" fill="black"/>
</svg>
